<?xml version="1.0" encoding="UTF-8" standalone="no"?>
<!-- Created with Inkscape (http://www.inkscape.org/) -->

<svg
   xmlns:dc="http://purl.org/dc/elements/1.1/"
   xmlns:cc="http://creativecommons.org/ns#"
   xmlns:rdf="http://www.w3.org/1999/02/22-rdf-syntax-ns#"
   xmlns:svg="http://www.w3.org/2000/svg"
   xmlns="http://www.w3.org/2000/svg"
   xmlns:sodipodi="http://sodipodi.sourceforge.net/DTD/sodipodi-0.dtd"
   xmlns:inkscape="http://www.inkscape.org/namespaces/inkscape"
   width="450.82993"
   height="600.81335"
   viewBox="0 0 119.28208 158.9652"
   version="1.1"
   id="svg8"
   inkscape:version="0.92.3 (2405546, 2018-03-11)"
   sodipodi:docname="logo.svg">
  <defs
     id="defs2" />
  <sodipodi:namedview
     id="base"
     pagecolor="#ffffff"
     bordercolor="#666666"
     borderopacity="1.0"
     inkscape:pageopacity="0.0"
     inkscape:pageshadow="2"
     inkscape:zoom="0.7"
     inkscape:cx="286.34511"
     inkscape:cy="279.5755"
     inkscape:document-units="mm"
     inkscape:current-layer="layer1"
     showgrid="false"
     inkscape:window-width="1366"
     inkscape:window-height="705"
     inkscape:window-x="-8"
     inkscape:window-y="-8"
     inkscape:window-maximized="1"
     units="px"
     fit-margin-left="2.5"
     fit-margin-top="2.5"
     fit-margin-right="2.5"
     fit-margin-bottom="2.5" />
  <metadata
     id="metadata5">
    <rdf:RDF>
      <cc:Work
         rdf:about="">
        <dc:format>image/svg+xml</dc:format>
        <dc:type
           rdf:resource="http://purl.org/dc/dcmitype/StillImage" />
        <dc:title />
      </cc:Work>
    </rdf:RDF>
  </metadata>
  <g
     inkscape:label="Layer 1"
     inkscape:groupmode="layer"
     id="layer1"
     transform="translate(194.28581,-68.253637)">
    <g
       id="g871">
      <g
         id="g877">
        <path
           style="fill:#28170b;fill-opacity:1;stroke:none;stroke-width:0.35607514px;stroke-linecap:butt;stroke-linejoin:miter;stroke-opacity:1"
           d="m -172.85474,211.99885 13.3212,-32.97917 c -1.04946,-4.46013 -4.52135,-4.1236 -4.52135,-4.1236 7.05441,-2.55368 0.90647,-1.95278 1.21302,-7.22049 0.86752,2.452 3.81858,4.17142 3.81858,4.17142 0.28515,-9.89914 -2.87726,-16.21252 -2.87726,-16.21252 2.25888,1.78044 4.50174,7.42479 4.50174,7.42479 4.36219,-20.74697 9.85126,-33.10173 18.2505,-50.48427 7.31728,-14.697537 15.49936,-24.390591 24.97406,-35.745134 4.66254,-4.278888 6.06592,-7.487164 11.44127,-7.914781 13.036766,23.878104 1.79192,48.306115 1.79192,48.306115 l -7.91366,3.64542 7.34624,-0.098 -11.94833,29.55274 -9.52868,3.48205 6.98321,1.48749 c -4.27814,10.08967 -7.67628,16.9194 -13.53569,23.74451 l -6.63546,-2.29342 4.76871,4.38767 c 0,0 -3.93934,4.10757 -4.44568,4.53698 -7.92759,4.98242 -13.4005,7.19254 -21.07946,2.16335 14.36965,-33.16121 28.30863,-59.43293 46.99913,-88.280814 -28.36226,33.399854 -39.76151,76.030254 -62.92401,112.449644 z"
           id="path842"
           inkscape:connector-curvature="0"
           sodipodi:nodetypes="ccccccccccccccccccccccc" />
      </g>
      <g
         id="flowRoot829"
         style="font-style:normal;font-variant:normal;font-weight:normal;font-stretch:condensed;font-size:18.66666603px;line-height:1.25;font-family:Bahnschrift;-inkscape-font-specification:'Bahnschrift Condensed';letter-spacing:0px;word-spacing:0px;fill:#000000;fill-opacity:1;stroke:none"
         transform="matrix(0.26458333,0,0,0.26458333,-188.99414,68.253637)"
         aria-label="LIGHT STATE">
        <path
           id="path837"
           style="font-size:53.33333588px;letter-spacing:21.53005981px"
           d="M -0.25325508,553.38802 H 4.6946618 v 37.86459 H -0.25325508 Z M 2.402995,586.56511 h 13.072917 v 4.6875 H 2.402995 Z" />
        <path
           id="path839"
           style="font-size:53.33333588px;letter-spacing:21.53005981px"
           d="m 45.860138,591.25261 h -4.947917 v -37.86459 h 4.947917 z" />
        <path
           id="path841"
           style="font-size:53.33333588px;letter-spacing:21.53005981px"
           d="m 90.931863,570.86198 v 11.06771 q 0,3.07292 -1.067709,5.26042 -1.067708,2.16145 -3.125,3.30729 -2.03125,1.14583 -4.895833,1.14583 -2.916667,0 -5,-1.06771 -2.083334,-1.09375 -3.177084,-3.15104 -1.067708,-2.05729 -1.067708,-4.94792 v -19.76562 q 0,-3.07292 1.067708,-5.23438 1.067708,-2.1875 3.098959,-3.33333 2.057291,-1.14583 4.921875,-1.14583 2.8125,0 4.817708,1.11979 2.005209,1.09375 3.046875,3.22916 1.067709,2.10938 1.067709,5.07813 v 1.875 h -5.260417 v -1.875 q 0,-1.45833 -0.442708,-2.5 -0.416667,-1.04167 -1.25,-1.5625 -0.807292,-0.54688 -1.979167,-0.54688 -1.302084,0 -2.239584,0.57292 -0.9375,0.57292 -1.432291,1.66667 -0.46875,1.09375 -0.46875,2.65625 v 19.76562 q 0,1.38021 0.494791,2.3698 0.520834,0.96354 1.484375,1.48437 0.963542,0.49479 2.317709,0.49479 1.302083,0 2.213542,-0.54687 0.9375,-0.57292 1.432291,-1.64063 0.494792,-1.09375 0.494792,-2.63021 v -6.45833 h -4.270834 v -4.6875 z" />
        <path
           id="path843"
           style="font-size:53.33333588px;letter-spacing:21.53005981px"
           d="m 130.17026,553.38802 h 4.94792 v 37.86459 h -4.94792 z m -12.5,0 h 4.97396 v 37.86459 h -4.97396 z m 3.30729,16.875 h 11.61459 v 4.6875 h -11.61459 z" />
        <path
           id="path845"
           style="font-size:53.33333588px;letter-spacing:21.53005981px"
           d="m 166.02324,556.48698 h 4.94792 v 34.76563 h -4.94792 z m -6.71875,-3.09896 h 18.38542 v 4.6875 h -18.38542 z" />
        <path
           id="path847"
           style="font-size:53.33333588px;letter-spacing:21.53005981px"
           d="m 240.17711,591.64323 q -2.96875,0 -5.02604,-1.01562 -2.05729,-1.04167 -3.125,-3.02084 -1.06771,-2.00521 -1.06771,-4.86979 v -1.875 h 4.94792 v 1.69271 q 0,2.05729 1.09375,3.17708 1.11979,1.09375 3.17708,1.09375 2.00521,0 3.07292,-1.09375 1.0677,-1.09375 1.0677,-3.17708 v -3.30729 q 0,-1.38021 -0.67708,-2.34375 -0.67708,-0.96354 -1.69271,-1.5625 -1.01562,-0.625 -2.8125,-1.43229 -0.0521,-0.0261 -0.10416,-0.0261 -0.0521,-0.026 -0.10417,-0.0521 l -0.36458,-0.15625 q -2.39584,-1.09375 -3.9323,-2.13542 -1.51041,-1.04166 -2.57812,-2.89062 -1.06771,-1.84896 -1.06771,-4.6875 v -2.1875 q 0,-2.8125 1.04167,-4.76563 1.06771,-1.97916 3.125,-2.99479 2.05729,-1.01562 5,-1.01562 2.86458,0 4.84375,1.04166 2.00521,1.01563 3.02083,3.02084 1.04167,1.97916 1.04167,4.81771 v 1.97916 h -4.94792 v -1.77083 q 0,-2.08333 -1.01562,-3.17709 -1.01563,-1.09375 -2.94271,-1.09375 -2.05729,0 -3.15104,1.04167 -1.06771,1.04167 -1.06771,2.96875 v 2.36979 q 0,1.4323 0.67708,2.42188 0.67708,0.96354 1.69271,1.5625 1.01562,0.59896 2.78646,1.38021 0.18229,0.0781 0.33854,0.15625 0.15625,0.0781 0.33854,0.15625 0.13021,0.0521 0.26042,0.13021 0.15625,0.0521 0.28646,0.10416 2.26562,1.01563 3.64583,1.95313 1.38021,0.91146 2.34375,2.65625 0.96354,1.74479 0.96354,4.55729 v 3.46354 q 0,2.86458 -1.06771,4.86979 -1.04166,1.97917 -3.07291,3.02084 -2.03125,1.01562 -4.94792,1.01562 z" />
        <path
           id="path849"
           style="font-size:53.33333588px;letter-spacing:21.53005981px"
           d="m 279.88425,556.48698 h 4.94791 v 34.76563 h -4.94791 z m -6.71875,-3.09896 h 18.38541 v 4.6875 H 273.1655 Z" />
        <path
           id="path851"
           style="font-size:53.33333588px;letter-spacing:21.53005981px"
           d="m 322.14346,553.38802 h 4.53125 l 8.75,37.86459 h -5.3125 l -5.70312,-30.10417 -5.70313,30.10417 h -5.3125 z m -3.15104,24.94792 h 11.22396 v 4.66146 h -11.22396 z" />
        <path
           id="path853"
           style="font-size:53.33333588px;letter-spacing:21.53005981px"
           d="m 363.46521,556.48698 h 4.94792 v 34.76563 h -4.94792 z m -6.71875,-3.09896 h 18.38542 v 4.6875 h -18.38542 z" />
        <path
           id="path855"
           style="font-size:53.33333588px;letter-spacing:21.53005981px"
           d="m 399.31819,553.38802 h 4.94791 v 37.86459 h -4.94791 z m 2.57812,33.17709 h 13.67188 v 4.6875 h -13.67188 z m 0,-16.45834 h 12.36979 v 4.6875 h -12.36979 z m 0,-16.71875 h 13.67188 v 4.6875 h -13.67188 z" />
      </g>
    </g>
  </g>
</svg>
